<svg width="75" height="75" viewBox="0 0 75 75" fill="none" xmlns="http://www.w3.org/2000/svg">
<rect x="0.0966797" y="0.426758" width="74.4758" height="74.4758" rx="10.37" fill="white"/>
<path d="M37.969 48.5877L28.4292 38.1539L30.3377 36.0306L36.6212 42.9048V17.3955H39.3168V42.9048L45.5976 36.0335L47.5088 38.1539L37.969 48.5877ZM23.4557 58.6823C22.214 58.6823 21.1779 58.2281 20.3477 57.3198C19.5174 56.4115 19.1014 55.2771 19.0996 53.9166V46.7711H21.7952V53.9166C21.7952 54.3708 21.9678 54.7876 22.3128 55.167C22.6578 55.5465 23.0379 55.7352 23.453 55.7332H52.4849C52.8982 55.7332 53.2783 55.5445 53.6251 55.167C53.972 54.7895 54.1445 54.3727 54.1427 53.9166V46.7711H56.8383V53.9166C56.8383 55.2752 56.4232 56.4086 55.5929 57.3169C54.7627 58.2252 53.7258 58.6803 52.4822 58.6823H23.4557Z" fill="#800080"/>
</svg>
