<svg width="103" height="103" viewBox="0 0 103 103" fill="none" xmlns="http://www.w3.org/2000/svg">
  <path d="M52.6383 59.3758L51.9313 58.6688L51.2242 59.3758L28.6925 81.9076L28.6862 81.9139L28.68 81.9203C28.1844 82.4339 27.5916 82.8436 26.936 83.1256C26.2804 83.4076 25.5752 83.5562 24.8616 83.5627C24.1479 83.5692 23.4402 83.4336 22.7795 83.1636C22.1189 82.8937 21.5186 82.4949 21.0137 81.9905C20.5089 81.4861 20.1095 80.8862 19.839 80.2258C19.5684 79.5655 19.4321 78.8578 19.4379 78.1442C19.4438 77.4305 19.5917 76.7252 19.8731 76.0694C20.1545 75.4135 20.5636 74.8203 21.0767 74.3242L21.0828 74.3184L21.0888 74.3124L43.629 51.7721L44.3361 51.065L43.629 50.358L21.0844 27.8177L21.0785 27.8118L21.0725 27.8059C20.5594 27.3099 20.1502 26.7166 19.8689 26.0608C19.5875 25.4049 19.4396 24.6996 19.4337 23.986C19.4278 23.2723 19.5642 22.5647 19.8347 21.9043C20.1053 21.2439 20.5046 20.644 21.0095 20.1396C21.5144 19.6352 22.1146 19.2364 22.7753 18.9665C23.4359 18.6966 24.1437 18.5609 24.8573 18.5675C25.5709 18.574 26.2761 18.7226 26.9317 19.0046C27.5873 19.2866 28.1802 19.6963 28.6757 20.2098L28.6819 20.2163L28.6882 20.2226L51.2242 42.7586L51.9313 43.4657L52.6384 42.7585L75.1702 20.2225L75.1703 20.2224C75.6693 19.7232 76.2617 19.3271 76.9138 19.0568C77.5659 18.7865 78.2648 18.6473 78.9707 18.6472C79.6765 18.647 80.3755 18.7859 81.0277 19.0558C81.6799 19.3258 82.2726 19.7216 82.7718 20.2206C83.2711 20.7196 83.6672 21.3121 83.9374 21.9641C84.2077 22.6162 84.3469 23.3152 84.3471 24.021C84.3472 24.7269 84.2084 25.4259 83.9384 26.0781C83.6684 26.7303 83.2726 27.3229 82.7736 27.8222L60.2336 50.358L59.5263 51.0651L60.2337 51.7723L82.778 74.3081C83.7864 75.3164 84.3528 76.684 84.3528 78.11C84.3528 79.536 83.7864 80.9035 82.778 81.9118C81.7697 82.9202 80.4022 83.4866 78.9762 83.4866C77.5502 83.4866 76.1827 82.9201 75.1743 81.9118L52.6383 59.3758Z" fill="#800080"/>
</svg>
