<svg width="57" height="57" viewBox="0 0 57 57" fill="none" xmlns="http://www.w3.org/2000/svg">
<path d="M31.0549 25.9543L31.0747 25.9737C31.488 26.3779 32.0452 26.6016 32.6239 26.5955C33.2025 26.5894 33.7548 26.3539 34.1594 25.941C34.564 25.5282 34.7877 24.9719 34.7816 24.3945C34.7755 23.817 34.54 23.2656 34.1267 22.8614L34.0936 22.829L34.0651 22.7925C33.9223 22.6097 33.7716 22.4332 33.6133 22.2636C31.2979 20.2628 28.3095 19.2114 25.249 19.3219C22.1768 19.4328 19.2618 20.706 17.0943 22.8835L17.0903 22.8876L17.0903 22.8876L3.89069 35.9306C1.77377 38.2387 0.629259 41.2735 0.695587 44.4034C0.762031 47.5387 2.03838 50.5273 4.25831 52.745C6.47826 54.9627 9.47015 56.238 12.6092 56.3044C15.7448 56.3707 18.7848 55.2257 21.0958 53.1083L26.0421 48.2811C26.4067 47.8772 26.6067 47.3515 26.6026 46.8075C26.5985 46.2576 26.386 45.7295 26.0077 45.3296C25.6294 44.9296 25.1134 44.6875 24.5635 44.6521C24.0228 44.6173 23.4889 44.785 23.0657 45.1217L18.0085 50.0311C16.5459 51.4904 14.5633 52.3101 12.4962 52.3101C10.4275 52.3101 8.4434 51.4891 6.98039 50.0276C5.51736 48.566 4.69532 46.5836 4.69532 44.5163C4.69532 42.4493 5.51716 40.4671 6.97985 39.0056L31.0549 25.9543ZM31.0549 25.9543L31.0336 25.9365L30.6991 25.6581C29.2223 24.332 27.2926 23.6221 25.3074 23.6748C23.3177 23.7276 21.4242 24.5424 20.0188 25.9509L6.98039 39.005L31.0549 25.9543ZM35.6163 4.23661L35.6121 4.2408L30.658 9.07547C30.2934 9.47936 30.0934 10.0051 30.0975 10.5491C30.1017 11.099 30.3142 11.6271 30.6924 12.027C31.0707 12.427 31.5867 12.6691 32.1367 12.7045C32.6762 12.7392 33.2088 12.5723 33.6316 12.2372L38.5732 7.32902C38.5734 7.32882 38.5736 7.32861 38.5738 7.32841C40.0368 5.86725 42.0206 5.04652 44.089 5.04652C46.1577 5.04652 48.1419 5.86748 49.6049 7.32902C51.0679 8.79058 51.8899 10.773 51.8899 12.8403C51.8899 14.9073 51.0681 16.8895 49.6054 18.351L35.6163 4.23661ZM35.6163 4.23661C37.9025 1.9669 40.9949 0.692857 44.2183 0.692857C47.4403 0.692857 50.5313 1.96576 52.8172 4.23357C55.0728 6.53143 56.3273 9.6271 56.3069 12.8452C56.2865 16.0648 54.9919 19.1457 52.7054 21.4152L52.7038 21.4168L39.6359 34.4717L39.6355 34.472C37.4646 36.644 34.5502 37.9133 31.4795 38.0242C28.4088 38.135 25.4102 37.079 23.0881 35.0692L23.0813 35.0633L23.0744 35.0576C22.8624 34.8836 22.6597 34.6986 22.4669 34.5036L22.467 34.5035L22.4585 34.4952C22.0453 34.091 21.8098 33.5396 21.8037 32.9621C21.7975 32.3847 22.0212 31.8284 22.4258 31.4156C22.8304 31.0027 23.3828 30.7672 23.9614 30.7611C24.54 30.755 25.0972 30.9787 25.5105 31.3829L25.5303 31.4023L25.5517 31.4201L25.8861 31.6985C27.363 33.0246 29.2927 33.7345 31.2778 33.6818C33.2675 33.629 35.1608 32.8143 36.5662 31.4059C36.5663 31.4058 36.5663 31.4057 36.5664 31.4057L49.6049 18.3516L35.6163 4.23661Z" stroke="#800080" stroke-width="1.38571"/>
</svg>
