<svg width="840" height="121" viewBox="0 0 840 121" fill="none" xmlns="http://www.w3.org/2000/svg">
<path d="M354.453 46.2122H357.775M357.775 46.2122L365.748 28.69M357.775 46.2122L372.391 43.5839L388.337 40.0794L405.611 37.4511M432.85 26.9378L456.768 25.1855M451.453 37.4511L462.748 43.5839L474.042 47.0883L484.008 49.7166" stroke="white" stroke-width="2"/>
<path d="M7.64648 32.1947L87.3725 33.9469V32.1947M87.3725 32.1947L123.914 20.8053L135.208 14.6725L147.167 20.8053L182.379 33.9469M87.3725 32.1947L182.379 33.9469M182.379 33.9469V36.5753L250.811 38.3275M95.3451 10.292L172.414 12.0442M92.6876 93.5224V34.823H104.646M104.646 34.823L103.982 117.177L105.975 114.549L111.955 111.099M104.646 34.823H111.955V111.099M165.77 38.3275H175.736L177.064 117.177H171.085L169.092 114.549L167.099 113.375M165.77 38.3275L167.099 113.375M165.77 38.3275V34.823H158.683V38.3275V108.416M167.099 113.375L158.683 108.416M158.683 108.416L137.866 96.1508L111.955 111.099M126.571 10.292L135.208 4.15918L141.852 10.292H126.571Z" stroke="white" stroke-width="2"/>
<path d="M6.31702 85.6367V79.5039H1.00195V75.9995L4.98825 74.2473H6.9814V47.964L2.33072 46.2118V42.7073L7.64579 40.9551C7.64579 40.9551 7.64579 35.6154 7.64579 32.194H1.00195V30.4418L34.2211 24.309L36.8787 20.8046L96.6732 22.5568L97.3376 12.0435H95.3444V8.53902L125.906 2.40625H140.522L172.413 11.1674V13.7957H170.42V25.1851L223.57 26.0612L226.228 29.5657H228.885L257.454 37.4507V38.3268H251.475V46.2118L256.79 48.8401V51.4684L251.475 53.2206L252.139 77.7517L258.118 79.5039V82.1323H252.803L281.372 85.6367L309.94 75.9995V68.1145M309.94 68.1145H306.618V63.734L331.201 53.2206V48.8401L319.906 46.2118V42.7073L349.139 32.194V26.0612H339.173V23.4329L359.105 17.3001H390.331L404.283 22.5568L420.228 15.5479M309.94 68.1145L333.858 63.734M420.228 15.5479L440.159 26.0612H444.81L440.159 22.5568L451.454 19.9285L484.673 23.4329L497.961 30.4418V33.0701H488.659V38.3268L509.255 48.8401V52.3445L498.625 53.2206V56.7251L523.207 68.9906M420.228 15.5479L440.159 42.7073M523.207 68.9906V72.4951V78.6278L544.468 90.8934M523.207 68.9906L440.159 42.7073M359.105 43.5834L365.749 28.6896L372.392 42.7073L380.365 25.1851L388.338 39.2029L396.975 21.6807L406.276 36.5745L417.57 26.0612M440.159 42.7073L333.858 59.3534M440.159 42.7073V49.7162L434.844 50.4171M333.858 59.3534L355.118 46.2118M333.858 59.3534V63.734M451.454 38.3268L456.769 23.4329L463.413 42.7073L468.728 28.6896L474.043 46.2118L478.694 33.0701L483.344 49.7162M333.858 63.734L434.844 50.4171M434.844 50.4171V120.681" stroke="white" stroke-width="2"/>
<path d="M6.42578 85.0762V120.681" stroke="white" stroke-width="2"/>
<path d="M662.149 33.8705L592.08 87.692L591.002 88.4928L595.53 89.6941L640.385 59.8621L644.686 57.0049L665.097 43.4445M662.149 33.8705L690.608 12.0107L694.92 13.6426L746.88 33.3059M662.149 33.8705L656.975 32.0322L693.627 2L756.582 28.4284L746.88 33.3059M746.88 33.3059L765.205 40.241L755.719 42.4434L798.56 57.0049L839.002 71.1743H827.675M660.917 120.681L665.097 43.4445M685.867 120.681V108.314M687.412 32.0322L687.59 23.2228L684.14 22.0215L665.599 35.8363L665.097 43.4445M687.412 32.0322L692.118 28.6286L699.017 30.6307V35.0355L692.118 33.0333L687.318 36.6372M687.412 32.0322L687.318 36.6372M687.318 36.6372L686.727 65.8686L686.633 70.4735L685.981 102.708M699.017 64.8675V69.2722M685.981 102.708L691.255 101.307L699.017 102.708V108.314L691.255 106.512L685.867 108.314M685.981 102.708L685.867 108.314M699.017 120.681V23.2228L701.82 21.4208L745.586 37.2378L746.246 46.0935M751.938 120.681L751.491 116.481L751.114 111.425L748.899 81.692L748.522 76.6354L746.562 50.3411L746.246 46.0935M603.534 120.681L605.513 94.2323L606.332 82.4864L602.86 84.7931M746.246 46.0935L827.675 71.1743M827.675 71.1743L830.427 101.307L832.959 120.681" stroke="white" stroke-width="2"/>
<path d="M544.002 91.0114H577.002L591.002 88.374" stroke="white" stroke-width="2"/>
</svg>
