<svg width="81" height="96" viewBox="0 0 81 96" fill="none" xmlns="http://www.w3.org/2000/svg">
<path d="M44.4125 45.9325C44.3529 46.2603 44.3827 46.5881 44.4125 46.7967H36.515C36.5448 46.6179 36.5746 46.2603 36.515 45.9325C36.515 45.8133 36.4852 45.7239 36.4256 45.6046H36.3362H44.5616H44.4722C44.4125 45.7239 44.3827 45.8133 44.4125 45.9325Z" fill="white"/>
<path d="M46.3497 62.4727C46.4689 62.6813 46.3795 62.8601 46.3497 62.9197V62.9495H46.3199H34.5778H34.548V62.9197C34.5182 62.8601 34.4288 62.6813 34.548 62.4727C34.5778 62.3833 34.6672 62.264 34.8163 62.1448H46.0516C46.1709 62.264 46.2603 62.3833 46.3497 62.4727Z" fill="white"/>
<path d="M45.3364 60.5951C45.2768 61.2806 45.3066 61.6084 45.3364 61.6978H35.5315C35.5613 61.6084 35.5911 61.2806 35.5315 60.5951H45.3364Z" fill="white"/>
<path d="M34.5183 59.3732H46.3199V59.6116L46.2305 59.9991C46.2007 60.0587 46.1411 60.0885 46.1113 60.1183H34.7269C34.6971 60.0885 34.6375 60.0289 34.6077 59.9991L34.5183 59.6116V59.3732Z" fill="white"/>
<path d="M38.8694 58.1513H41.9688C41.9986 58.4494 41.9986 58.7176 41.9986 58.8964H38.8396C38.8694 58.7176 38.8694 58.4494 38.8694 58.1513Z" fill="white"/>
<path d="M38.9886 56.0652H41.8794C41.8794 56.3334 41.9092 56.5718 41.9092 56.8102H38.929C38.9588 56.6016 38.9588 56.3334 38.9886 56.0652Z" fill="white"/>
<path d="M38.929 57.1977H41.939C41.939 57.4659 41.9688 57.7043 41.9688 57.9427H38.8992C38.8992 57.7043 38.8992 57.4659 38.929 57.1977Z" fill="white"/>
<path d="M39.0481 55.2307H41.8495C41.8495 55.4692 41.8793 55.648 41.8793 55.8566H38.9885C38.9885 55.6778 39.0183 55.4692 39.0481 55.2307Z" fill="white"/>
<path d="M41.7601 54.0685C41.7899 54.3367 41.7899 54.6347 41.8197 54.9029H39.0481C39.0779 54.6347 39.0779 54.3665 39.1077 54.0685H41.7601Z" fill="white"/>
<path d="M39.3462 50.7902H41.5218C41.5516 50.9988 41.5516 51.2373 41.5814 51.4459H39.2866C39.2866 51.2075 39.3164 50.9988 39.3462 50.7902Z" fill="white"/>
<path d="M39.4356 49.6577H41.4323C41.4621 49.8962 41.4621 50.1346 41.4919 50.373H39.376C39.376 50.1346 39.4058 49.8962 39.4356 49.6577Z" fill="white"/>
<path d="M45.8431 47.959H34.9951C35.1143 47.7802 35.2633 47.5716 35.5018 47.3928L35.7998 47.2736H45.0682L45.3662 47.3928C45.6047 47.5716 45.7537 47.7802 45.8431 47.959Z" fill="white"/>
<path d="M39.0481 44.0847C39.1375 43.9357 39.1971 43.6675 39.1673 43.2205H41.6409C41.6111 43.6675 41.6707 43.9357 41.7601 44.0847H39.0481Z" fill="white"/>
<path d="M39.1078 42.9225C39.078 42.7734 39.1078 42.535 39.2568 42.1178H41.6112C41.7304 42.535 41.7602 42.7734 41.7602 42.9225H39.1078Z" fill="white"/>
<path d="M41.4323 41.6708H39.4058C39.4455 41.6112 39.4753 41.5516 39.4952 41.492C39.4952 41.492 39.7038 41.2833 39.7932 40.8661H41.0747C41.1641 41.3132 41.3727 41.492 41.3727 41.492C41.3727 41.5516 41.4025 41.6112 41.4323 41.6708Z" fill="white"/>
<path d="M41.0747 39.7932C41.0151 40.1211 40.9853 40.3893 41.0151 40.5979H39.823C39.8528 40.3893 39.823 40.1211 39.7634 39.7932H41.0747Z" fill="white"/>
<path d="M39.7037 39.4952C39.6441 39.3164 39.5845 39.1376 39.4951 38.929C39.4951 38.929 39.4951 38.8396 39.5249 38.6906H41.3428C41.3726 38.8396 41.3726 38.929 41.3726 38.929C41.2832 39.1376 41.2236 39.3164 41.164 39.4952H39.7037Z" fill="white"/>
<path d="M41.2835 38.4224H39.5251C39.6146 38.0051 39.7934 37.4091 40.2106 37.0813C40.2702 37.0515 40.3596 36.9919 40.4192 36.9621C40.5086 36.9919 40.5682 37.0217 40.6278 37.0813C41.0451 37.4091 41.2239 38.0051 41.2835 38.4224Z" fill="white"/>
<path fill-rule="evenodd" clip-rule="evenodd" d="M64.6481 40.0019C64.6481 41.4324 63.8137 42.8033 62.2044 44.0549C62.3236 44.651 61.7871 45.4556 60.8931 45.9623C59.9692 46.4987 59.0155 46.5583 58.5685 46.1411C58.2407 46.2901 57.8831 46.4093 57.5254 46.5583C57.0188 46.7669 56.5122 46.9159 55.9757 47.0948C56.0651 47.3034 56.1843 47.512 56.2737 47.7206C58.3003 52.2207 58.4493 55.648 56.691 57.4063C54.9326 59.1646 51.4756 59.0156 47.0053 56.9891C45.098 56.1248 43.131 54.9625 41.1343 53.5916H39.7634C37.7368 54.9923 35.7699 56.1248 33.8924 56.9891C29.3923 59.0156 25.965 59.1646 24.2067 57.4063C23.1934 56.3632 22.8358 54.8135 23.0742 52.787C22.5676 52.4591 22.3888 51.5353 22.657 50.522C22.9252 49.5087 23.5808 48.7637 24.1769 48.7637C24.3259 48.4359 24.4749 48.0782 24.6239 47.7206C24.7133 47.512 24.8325 47.3034 24.9219 47.0948C24.3855 46.9159 23.8789 46.7371 23.3722 46.5583C18.7529 44.8298 16.2197 42.5052 16.2197 40.0019C16.2197 37.5581 18.6933 35.2633 23.1636 33.5348C23.0742 33.3262 22.955 33.0878 22.8656 32.8792C20.839 28.379 20.69 24.9518 22.4484 23.1935C24.0577 21.5544 27.1571 21.5842 31.1804 23.2233C31.5976 22.806 32.5811 22.7762 33.5049 23.2531C34.4288 23.7001 35.0248 24.475 34.9354 25.071C36.7236 26.1141 38.5713 27.3658 40.419 28.7963C43.2204 26.5909 46.0516 24.8028 48.704 23.6107C53.2041 21.5842 56.6314 21.4352 58.3897 23.1935C60.148 24.9518 59.999 28.4088 57.9725 32.8792C57.8831 33.0878 57.7937 33.3262 57.6744 33.5348C62.1448 35.2633 64.6183 37.5581 64.6481 40.0019ZM40.7469 29.0347C41.4621 29.6009 42.2072 30.2268 42.9224 30.8526C48.3464 31.0612 53.4127 31.9553 57.3466 33.4156C59.4924 28.9751 59.9394 25.2498 58.1513 23.4617C55.3797 20.7199 48.2272 23.1935 40.7469 29.0347ZM39.4654 49.5385C39.4654 49.4193 39.4952 49.3001 39.4952 49.1809C38.3031 49.1511 37.1408 49.1213 35.9785 49.0319C37.0812 50.0154 38.2137 50.9392 39.3163 51.8035H41.5515C42.6542 50.9392 43.7867 50.0154 44.8893 49.0319C43.7271 49.1213 42.5648 49.1511 41.3727 49.1809C41.3727 49.3001 41.4025 49.4193 41.4025 49.5385H39.4654ZM45.8728 48.108C46.4092 47.6014 46.9755 47.065 47.5119 46.5285C49.1808 44.8596 50.7007 43.1609 52.0716 41.4622C50.3133 39.0184 48.1974 36.515 45.7536 34.0712C44.7701 33.0878 43.7569 32.1341 42.7436 31.24C41.9985 31.2102 41.1939 31.2102 40.419 31.2102C39.6442 31.2102 38.8693 31.2102 38.0945 31.24C37.0812 32.1341 36.0977 33.058 35.0845 34.0712C32.6407 36.515 30.5247 39.0184 28.7664 41.4622C30.1373 43.1311 31.6572 44.8596 33.3261 46.5285C33.8626 47.065 34.4288 47.6014 34.9652 48.108H45.8728ZM25.4882 46.8265C28.1704 47.6312 31.3592 48.2272 34.846 48.5551C34.846 48.5551 34.846 48.5253 34.846 48.4955C34.25 47.959 33.654 47.3928 33.0579 46.7967C31.4188 45.1576 29.8989 43.4589 28.528 41.7602C27.3061 43.5185 26.263 45.247 25.4882 46.8265ZM34.7864 33.7732C35.6805 32.909 36.5746 32.0447 37.4984 31.24C32.134 31.5083 27.3061 32.4023 23.6703 33.7434C24.8325 36.068 26.4716 38.6012 28.4982 41.1641C30.2863 38.6608 32.4023 36.1872 34.7864 33.7732ZM46.0516 48.5253C46.0516 48.5253 46.0516 48.5551 46.0516 48.5849C49.5385 48.257 52.6975 47.661 55.4095 46.8563C54.6048 45.2172 53.5618 43.5185 52.3399 41.7602C50.969 43.4589 49.4491 45.1576 47.8099 46.7967C47.2139 47.3928 46.6179 47.959 46.0516 48.5253ZM52.3399 41.1939C54.3664 38.631 56.0055 36.0978 57.1678 33.7732C53.5021 32.4321 48.704 31.5083 43.3396 31.2698C44.2635 32.0745 45.1576 32.909 46.0516 33.803C48.4358 36.1872 50.5517 38.6608 52.3399 41.1939ZM40.419 29.2731C39.7634 29.7499 39.1375 30.2864 38.5117 30.8228C39.1673 30.793 39.7634 30.793 40.419 30.793C41.0747 30.793 41.7005 30.793 42.3264 30.8228C41.7005 30.2864 41.0449 29.7797 40.419 29.2731ZM23.551 33.4156C27.4849 31.9553 32.5513 31.0612 37.9753 30.8526C38.6905 30.2268 39.4356 29.6009 40.1508 29.0347C38.3329 27.6042 36.5448 26.3823 34.8162 25.3988C34.4586 25.8757 33.4453 25.9055 32.4619 25.4286C31.4784 24.9518 30.8824 24.1173 31.0314 23.5213C27.3061 22.0312 24.2961 21.8822 22.7166 23.4617C20.8987 25.2498 21.3457 28.9453 23.551 33.4156ZM25.1007 46.7371C25.9352 45.0384 27.0379 43.2503 28.2896 41.4622C26.2332 38.8992 24.5643 36.3064 23.3424 33.8626C19.1701 35.4421 16.6072 37.6177 16.6072 40.0019C16.6072 42.7138 19.9152 45.1278 25.1007 46.7371ZM39.1971 52.6975H39.9422C39.823 52.6181 39.7038 52.5287 39.5846 52.4293H39.2269C39.2567 52.3697 39.2567 52.2803 39.2567 52.1909C37.9455 51.2074 36.664 50.1346 35.3825 48.9723C31.7168 48.6743 28.2598 48.0484 25.3094 47.1544C25.0411 47.6908 24.7729 48.257 24.5643 48.7935C25.1008 49.0915 25.3094 50.075 25.0411 51.118C24.7431 52.1909 24.0577 52.936 23.4318 52.8764C23.1934 54.6943 23.5212 56.1546 24.4749 57.1083C26.8889 59.5222 32.7003 57.9129 39.1375 53.532C39.1673 53.2936 39.1673 52.9956 39.1971 52.7274V52.6975ZM40.6574 52.4591H40.1806C40.27 52.5187 40.3296 52.5783 40.419 52.6379C40.5084 52.5783 40.5978 52.5187 40.6574 52.4591ZM55.5585 47.214C52.6081 48.108 49.1808 48.7339 45.4854 49.0319C44.2039 50.1942 42.8926 51.267 41.6111 52.2505C41.6409 52.3101 41.6409 52.3995 41.6409 52.4889H41.2833C41.1641 52.5684 41.0449 52.6578 40.9257 52.7572H41.6707C41.7005 53.0254 41.7005 53.2936 41.7303 53.5618C48.1676 57.9427 53.979 59.552 56.3929 57.1381C58.1811 55.3201 57.734 51.6247 55.5585 47.214ZM64.2607 40.0019C64.2607 37.6177 61.6977 35.4421 57.5254 33.8626C56.3035 36.3064 54.6048 38.8992 52.5783 41.4622C53.83 43.2503 54.9029 45.0384 55.7671 46.7371C56.691 46.4689 57.5254 46.1411 58.3301 45.8133C58.1513 45.2172 58.6877 44.3828 59.6116 43.8463C60.5652 43.2801 61.5785 43.2503 61.9957 43.7271C63.4262 42.5946 64.2309 41.3429 64.2607 40.0019Z" fill="white"/>
<path fill-rule="evenodd" clip-rule="evenodd" d="M46.0219 45.3066H34.7567C34.7567 45.3066 34.7269 45.2768 34.6971 45.247C34.6077 45.1278 34.3991 44.8596 34.6673 44.4424C34.5779 44.4126 34.5183 44.353 34.4587 44.2636C34.2799 43.9656 34.0117 43.2801 34.5183 42.1476C34.7269 41.6708 34.9951 40.8959 34.8163 39.7933C34.8163 39.7337 34.8461 39.6442 34.9057 39.6144C34.9653 39.5846 35.0547 39.6144 35.0845 39.6741C35.1143 39.7635 36.4554 41.8496 36.068 43.3099C35.9488 43.7867 35.6508 44.1146 35.2335 44.353H45.5451C45.098 44.1444 44.8 43.7867 44.6808 43.3099C44.2934 41.8496 45.6643 39.7635 45.7239 39.6741C45.7537 39.6144 45.8431 39.5846 45.9027 39.6144C45.9623 39.6542 45.9921 39.7138 45.9921 39.7933C45.8133 40.9257 46.0815 41.6708 46.2901 42.1476C46.8266 43.3099 46.5583 43.9656 46.3497 44.2636C46.2901 44.353 46.2305 44.4126 46.1411 44.4424C46.4093 44.8596 46.2305 45.1278 46.1113 45.247C46.0815 45.2768 46.0517 45.3066 46.0219 45.3066ZM34.9951 44.1146C35.4422 43.9357 35.7104 43.6377 35.8296 43.1907C36.0382 42.3264 35.5316 41.1046 35.1739 40.4191C35.1739 41.2834 34.9653 41.8794 34.7865 42.2966C34.3693 43.2205 34.5183 43.7569 34.6971 44.055C34.7567 44.1444 34.8759 44.1742 34.9951 44.1146ZM46.1113 44.0848C46.2901 43.7867 46.4391 43.2503 46.0219 42.3264C45.8431 41.9092 45.6047 41.2834 45.6345 40.4489C45.2769 41.1344 44.7404 42.3264 44.9788 43.2205C45.098 43.6675 45.3663 43.9656 45.8431 44.1444C45.9623 44.1742 46.0517 44.1444 46.1113 44.0848Z" fill="white"/>
<path d="M32.76 68.9099L31.9553 68.6417L32.1341 68.3436C32.4024 67.9562 32.7004 67.4496 32.9388 67.0323H32.9686C32.9388 67.5092 32.8494 68.0754 32.8196 68.5523L32.76 68.9099Z" fill="white"/>
<path d="M50.3431 11.8389C50.7008 10.9746 51.2074 10.6468 51.7736 10.8554C52.3399 11.064 52.4889 11.6899 52.1611 12.5243C51.8332 13.3588 51.2968 13.7462 50.7306 13.5376C50.1643 13.329 50.0451 12.6733 50.3431 11.8389Z" fill="white"/>
<path d="M71.5623 40.7767C71.5325 41.3728 70.9961 41.7304 70.102 41.7006C69.208 41.6708 68.6417 41.2834 68.6715 40.6873C68.6715 40.0913 69.2676 39.7336 70.1616 39.7634C71.0557 39.7932 71.5623 40.1807 71.5623 40.7767Z" fill="white"/>
<path fill-rule="evenodd" clip-rule="evenodd" d="M80.9201 36.813C80.8307 38.929 80.8903 41.0449 80.8903 43.1907C79.6386 43.2801 78.4764 43.4589 77.2843 43.4887C76.42 43.4887 76.0028 43.6675 75.9432 44.7106C75.8538 46.0517 75.4664 47.363 75.1385 48.6743C75.0193 49.1809 74.8703 49.4789 75.6154 49.7173C76.569 50.0154 77.4333 50.6412 78.387 51.0584C79.0426 51.3267 79.1916 51.7439 78.9234 52.3399C78.1783 54.0387 77.4631 55.7374 76.6584 57.3765C76.5094 57.6447 75.973 57.9725 75.7048 57.9129C74.3935 57.6149 73.1418 57.1977 71.8603 56.8102C70.8172 58.2407 69.7444 59.701 68.7013 61.1912C68.5821 61.37 68.7609 61.8468 68.9397 62.0554C69.6549 62.9197 70.4596 63.6945 71.1749 64.5886C71.3537 64.7972 71.3537 65.423 71.1749 65.6019C69.6848 67.2112 68.1052 68.7609 66.4363 70.4596C65.6317 69.7742 64.8568 69.1483 64.1118 68.4927C62.7409 67.2708 62.5919 67.2708 61.0123 68.3735C60.0289 69.0589 59.0156 69.7145 57.9427 70.4596C58.3301 71.7709 58.7474 73.0822 59.0752 74.4233C59.1348 74.6319 58.8964 75.1087 58.6878 75.1981C56.8102 76.0326 54.9625 76.8372 53.0552 77.5823C52.8168 77.6717 52.2803 77.4333 52.1313 77.1949C51.5949 76.3008 51.1478 75.3472 50.671 74.4233C50.4028 73.9166 50.1644 73.6782 49.4491 73.857C47.8696 74.2743 46.2305 74.4531 44.502 74.7511C44.4424 75.7644 44.2934 76.9267 44.2934 78.0591C44.2934 78.9234 44.3232 79.5194 43.1013 79.4896C41.4026 79.43 39.7336 79.579 38.0349 79.6684C36.9919 79.7281 36.6938 79.0724 36.6044 78.238C36.515 77.2843 36.3958 76.3604 36.3958 75.4068C36.3958 74.7511 36.0978 74.6021 35.5017 74.5425C33.9222 74.3637 32.3725 74.0657 30.644 73.7974C29.9884 75.0193 29.2731 76.3306 28.4983 77.8207C26.0843 77.3439 23.8193 76.2114 21.5842 75.1385C22.0014 73.7676 22.4484 72.4563 22.7763 71.1152C22.8359 70.847 22.657 70.3404 22.4186 70.1616C21.2861 69.3569 20.0941 68.6715 18.9914 67.8668C18.5146 67.539 18.2761 67.5092 17.8291 67.8966C16.7264 68.8205 15.6237 69.6847 14.2529 70.7874C12.5243 69.0291 10.8554 67.3304 9.1865 65.6615C10.2892 64.3502 11.1832 63.3071 12.0177 62.2044C12.1667 61.966 12.1667 61.4296 11.9879 61.1614C11.1534 59.8203 10.2296 58.5686 9.2759 57.1381C7.8156 57.6149 6.32549 58.0619 4.59697 58.5984C4.03073 57.3169 3.37509 55.946 2.77905 54.5751C2.51083 53.9194 2.183 53.234 2.00419 52.5485C1.94459 52.3101 2.1532 51.8035 2.39162 51.6545C3.40489 51.0882 4.47776 50.6412 5.49104 50.075C5.72945 49.9558 5.99767 49.5385 5.96787 49.3001C5.64005 47.5418 5.22282 45.7835 4.83539 43.9655C3.67311 43.9655 2.54063 43.9059 1.40815 43.9953C0.394878 44.0848 0.0670547 43.5185 0.0372526 42.7139C-0.0223516 40.6277 0.00745052 38.5118 0.00745052 36.4852C1.79558 36.2766 3.28568 36.068 4.83539 35.8594C5.19302 34.1607 5.58044 32.4917 5.87846 30.793C5.90827 30.5546 5.66985 30.1374 5.43143 30.0182C4.50757 29.5413 3.5837 29.0347 2.60023 28.7367C1.91478 28.5281 1.82538 28.2002 2.03399 27.6638C2.77905 25.7863 3.5539 23.9385 4.38836 22.1206C4.47776 21.912 5.0142 21.7034 5.25262 21.763C6.53411 22.0908 7.756 22.508 9.06729 22.9253C10.1402 21.316 11.2428 19.6768 12.3753 18.0377C11.5409 17.0841 10.6766 16.1602 9.81234 15.2065C9.48452 14.8489 9.36531 14.4913 9.78254 14.074C11.213 12.7031 12.6435 11.3322 14.0442 9.93155C14.5211 9.48452 14.9085 9.48452 15.4151 9.93155C16.1602 10.5872 16.9052 11.2428 17.7397 11.8091C18.0377 11.9879 18.6338 12.0475 18.902 11.8687C20.3027 10.9746 21.6736 10.021 23.1637 9.00768C22.7166 7.63679 22.2398 6.14668 21.7332 4.50757C24.0875 3.5837 26.4121 2.65984 28.7367 1.73597C29.4221 3.13667 29.9586 4.29895 30.5248 5.43143C30.7632 5.87846 31.091 5.93807 31.4189 5.87846C32.5513 5.58044 33.6838 5.34203 34.8461 5.16321C35.4421 5.0142 36.0382 4.86519 36.6342 4.74598C36.7236 3.4943 36.7534 2.1234 36.9322 0.812107C36.9621 0.514086 37.4985 0.0372526 37.8263 0.0372526C39.9423 -0.0223516 42.088 0.00745054 44.2636 0.00745054C44.4722 1.61676 44.6808 3.19627 44.8894 4.83539C46.6477 5.16321 48.4955 5.52084 50.4922 5.90827C51.1776 4.62677 51.8929 3.25588 52.7572 1.61676C55.0221 2.51083 57.3765 3.46449 59.701 4.38836C59.1348 6.14668 58.6282 7.66659 58.1811 9.09709C59.5818 10.0806 60.9527 11.0044 62.3236 11.9283C62.4726 12.0177 62.8303 12.0773 62.9495 11.9879C63.9627 11.1534 64.976 10.319 65.9595 9.45471C66.3171 9.12689 66.4661 8.97788 66.943 9.45471C68.3139 10.8554 69.8338 12.1369 71.2345 13.5078C71.5027 13.776 71.8603 14.1634 71.2643 14.6999C70.3702 15.4747 69.6848 16.488 68.9397 17.4119C68.6119 17.7993 68.5225 18.0675 68.9993 18.5742C69.7444 19.4086 70.3404 20.4219 70.8768 21.4352C71.4431 22.4782 72.1881 22.5676 73.1716 22.21C74.0359 21.8822 74.8703 21.5842 75.7346 21.3756C76.0326 21.3159 76.5988 21.5246 76.6882 21.7332C77.5227 23.6107 78.2678 25.518 78.983 27.4254C79.0724 27.634 78.834 28.1406 78.6254 28.2598C77.4333 28.9453 76.1816 29.5413 74.9597 30.1672C75.3173 31.8957 75.7048 33.6242 76.122 35.5912C77.1949 35.621 78.4168 35.7104 79.6088 35.6806C80.5029 35.6508 80.8903 35.8892 80.9201 36.813ZM71.9795 32.909L67.0622 33.6242L67.241 34.8759L68.6715 34.6673C69.2675 34.5779 69.9828 34.3693 70.5192 34.2203V34.2501L69.4761 34.8759L67.4198 36.2766L67.5986 37.6177L72.5159 36.9024L72.3371 35.6508L70.9066 35.8594C70.3106 35.9488 69.5655 36.1574 69.0589 36.3064V36.2766L70.102 35.6508L72.1285 34.2501L71.9795 32.909ZM70.102 27.2168L65.423 28.8559L65.8701 30.1076L67.7178 29.4519L68.1946 30.8526L66.3469 31.5083L66.7939 32.76L71.4729 31.1208L71.0258 29.8692L69.2675 30.495L68.7907 29.0943L70.549 28.4685L70.102 27.2168ZM65.274 23.5809C63.7839 24.4154 63.6051 25.7863 64.231 26.8889C64.529 27.4552 65.0356 27.8426 65.6615 27.9618L66.0489 26.9485C65.7509 26.8889 65.423 26.7101 65.2442 26.3823C64.9462 25.8161 65.1846 25.1902 65.9893 24.7432C66.7641 24.2962 67.4794 24.475 67.7774 24.9816C67.9562 25.2796 67.9264 25.5478 67.8668 25.8757L68.9397 26.0545C69.0887 25.5777 69.0887 24.9518 68.7609 24.3856C68.135 23.3127 66.7641 22.7763 65.274 23.5809ZM64.678 18.6636L60.8335 21.7332L62.8601 24.2962L63.7243 23.6107L62.5024 22.061L63.1879 21.5246L64.2012 22.8061L65.0654 22.1206L64.0522 20.8391L64.6482 20.3623L65.8105 21.8524L66.6747 21.1669L64.678 18.6636ZM65.2442 42.6244C65.3038 42.237 65.3336 41.8496 65.3634 41.4324C65.3932 40.8661 65.423 40.3297 65.423 39.7634C65.423 39.078 65.3932 38.4224 65.3336 37.7667C65.3038 37.4389 65.274 37.1409 65.2442 36.813C64.7376 32.4619 63.1283 28.4685 60.6845 25.071C60.4759 24.7432 60.2375 24.4452 59.9991 24.1471C59.3434 23.3127 58.6282 22.5378 57.8831 21.7928C57.6149 21.4948 57.3467 21.2563 57.0487 20.9881C54.7539 18.9318 52.1015 17.2629 49.1511 16.1602C46.3795 15.0873 43.3695 14.5211 40.2105 14.5211C28.1406 14.5211 18.0377 22.9849 15.5641 34.3097C15.2363 35.77 15.0575 37.2899 14.9979 38.8694C14.9681 39.1674 14.9681 39.4356 14.9681 39.7336C14.9681 40.3297 14.9979 40.8661 15.0277 41.4324C15.3853 46.9756 17.5311 52.0419 20.9285 56.0354C24.2068 59.9395 28.6771 62.8005 33.7434 64.1416C33.803 64.1714 33.8924 64.1714 33.9818 64.2012C35.9786 64.7078 38.0349 64.976 40.1807 64.976H40.2701C40.5681 64.976 40.8959 64.9462 41.1939 64.9462C43.2205 64.8866 45.1874 64.5588 47.065 64.0224C47.214 63.9925 47.3332 63.9627 47.4822 63.9031C47.9888 63.7243 48.5253 63.5455 49.0617 63.3667C51.3863 62.5024 53.5618 61.2806 55.499 59.7905C55.797 59.5818 56.0652 59.3732 56.3334 59.1348C57.1083 58.509 57.8533 57.8235 58.5388 57.0785C58.8368 56.7804 59.105 56.4526 59.3732 56.1546C62.562 52.4293 64.678 47.7504 65.2442 42.6244ZM55.7076 11.4813L53.1446 15.743L54.2771 16.4284L55.2009 14.8787L56.6016 15.7132L57.1679 14.7595L55.7672 13.925L56.244 13.1204L57.8831 14.1038L58.4494 13.1502L55.7076 11.4813ZM50.3134 14.6105C51.5949 15.1171 52.8168 14.5509 53.4128 13.031C54.0088 11.5111 53.4724 10.319 52.1909 9.81234C50.9094 9.30571 49.7173 9.81234 49.1213 11.3322C48.5253 12.8522 49.0319 14.1038 50.3134 14.6105ZM42.5946 12.6733L45.8729 13.1502L46.0219 12.0475L44.0549 11.7793L44.1742 10.915L45.7835 11.1236L45.9325 10.021L44.3232 9.81234L44.4424 9.03749L46.3199 9.3057L46.4689 8.20303L43.2801 7.756L42.5946 12.6733ZM38.0051 7.72619L38.0349 8.82887L39.3462 8.79907L39.4058 12.6733L40.7171 12.6435L40.6575 8.76927L41.9688 8.73946L41.939 7.63679L38.0051 7.72619ZM32.6109 8.56065L33.0878 11.0938C33.3858 12.7627 34.1905 13.4184 35.5614 13.18C36.9322 12.9118 37.4091 12.0177 37.1111 10.3488L36.6342 7.8156L35.3825 8.05402L35.8594 10.7362C36.0084 11.6005 35.8296 11.9581 35.3229 12.0475C34.8163 12.1369 34.5183 11.8687 34.3693 11.0044L33.8924 8.32224L32.6109 8.56065ZM27.5744 10.2892L27.9916 11.3322L29.2135 10.8852L30.5248 14.5211L31.7467 14.074L30.4354 10.4382L31.6573 9.99115L31.2698 8.94808L27.5744 10.2892ZM25.6075 11.2428L27.8128 15.7132L29.0049 15.1469L26.7995 10.6766L25.6075 11.2428ZM21.1967 13.9548L21.7928 14.8787L22.8955 14.1634L25.0114 17.4119L26.1141 16.6966L23.9981 13.4482L25.1008 12.7329L24.5048 11.8091L21.1967 13.9548ZM18.7828 17.9781C19.2596 18.5146 19.9153 18.5444 20.4517 18.3357L21.0477 18.1569C21.4948 18.0079 21.7332 17.8887 21.8822 18.0675C22.0312 18.2165 22.0014 18.4251 21.7034 18.6934C21.4352 18.9318 20.9583 19.0808 20.5113 19.1106L20.5411 20.2729C21.2563 20.2729 21.9418 19.9749 22.4186 19.5576C23.3425 18.753 23.3723 17.7099 22.8061 17.0841C22.3292 16.5476 21.7928 16.4582 21.1669 16.6966L20.5709 16.9052C20.1239 17.0841 19.8556 17.2033 19.7066 17.0244C19.5576 16.8456 19.647 16.637 19.8854 16.4284C20.1537 16.19 20.4517 16.1006 20.8689 16.041L20.8093 14.9979C20.1835 14.9681 19.5576 15.2065 19.1404 15.5939C18.3357 16.3092 18.2165 17.3523 18.7828 17.9781ZM14.1336 21.1967L18.0079 24.326L18.7828 23.3425L17.6503 22.4484C17.1735 22.0908 16.5476 21.7034 16.0708 21.4054L16.1006 21.3756L17.2629 21.7034L19.6768 22.2398L20.5113 21.2265L16.637 18.0973L15.8622 19.0808L16.9946 19.9749C17.4715 20.3325 18.1271 20.7199 18.5742 21.0179L18.5444 21.0477L17.3821 20.7199L14.9681 20.1835L14.1336 21.1967ZM12.7329 23.4319L16.9648 26.0545L17.6503 24.9518L13.4184 22.3292L12.7329 23.4319ZM9.99115 29.2731L14.6105 31.1208L15.8026 28.1704L14.7595 27.7234L14.074 29.4817L10.4978 28.0512L9.99115 29.2731ZM8.94808 33.1176L13.4184 35.7402L13.7164 34.4289L12.7627 33.952L13.0906 32.6109H14.1634L14.4913 31.2698L9.3057 31.5977L8.94808 33.1176ZM8.17322 39.8231L13.1204 40.1211L13.2098 38.8694L11.7793 38.78C11.1534 38.7502 10.4382 38.8098 9.87194 38.8396V38.8098L11.0044 38.3925L13.2992 37.4389L13.3886 36.0978L8.44144 35.7998L8.35204 37.0515L9.78254 37.1409C10.4084 37.1707 11.1534 37.1111 11.6899 37.0813V37.1111L10.5574 37.5283L8.26263 38.482L8.17322 39.8231ZM11.2428 45.7239C12.8522 45.545 13.7164 44.502 13.5376 43.1311C13.3588 41.7602 12.2859 40.9555 10.6766 41.1641C9.03749 41.343 8.23283 42.386 8.41164 43.7569C8.56065 45.1278 9.60373 45.9325 11.2428 45.7239ZM9.39511 48.3464L14.2231 47.1246L13.8952 45.8431L9.06729 47.065L9.39511 48.3464ZM11.1236 53.2042L12.1369 52.8168L11.6601 51.5949L15.2661 50.224L14.7893 49.0021L11.1832 50.373L10.7064 49.1511L9.69313 49.5385L11.1236 53.2042ZM12.7031 56.1248L17.7695 55.0519L17.1139 53.8896L16.0708 54.1877L15.3853 52.9658L16.19 52.2505L15.5045 51.0286L11.8985 54.7539L12.7031 56.1248ZM20.5113 58.4792L19.7364 57.4957L18.604 58.3898C18.1271 58.7772 17.6205 59.2838 17.2331 59.701L17.2033 59.6712L17.7695 58.5984L18.8126 56.3334L17.9781 55.2903L14.1038 58.4196L14.8787 59.403L16.0112 58.509C16.488 58.1215 16.9946 57.5851 17.3821 57.1977L17.4119 57.2275L16.8456 58.3004L15.8026 60.5355L16.637 61.5786L20.5113 58.4792ZM22.3888 61.4594C21.8822 61.0421 21.1669 61.1315 20.7199 61.6382C20.3027 62.1746 20.3325 62.8899 20.8391 63.3071C21.3458 63.7243 22.061 63.6349 22.508 63.1283C22.9253 62.6217 22.8955 61.9064 22.3888 61.4594ZM29.9884 66.2873L30.942 65.8999C30.793 65.4529 30.495 64.9462 29.9586 64.6482C28.9155 64.082 27.5446 64.3502 26.7697 65.7211C25.9949 67.1218 26.5313 68.3139 27.5744 68.9099C28.1108 69.2079 28.7069 69.2675 29.2731 69.0589L29.0943 68.0456C28.7963 68.135 28.4685 68.1648 28.1406 67.986C27.6042 67.688 27.5148 67.0622 27.932 66.2873C28.3492 65.5423 29.0049 65.3336 29.4817 65.6019C29.7499 65.7509 29.899 65.9893 29.9884 66.2873ZM33.9818 66.3767L32.5513 65.8999L29.6903 69.9232L30.9122 70.3404L31.4487 69.4761L32.7003 69.8934L32.6109 70.9066L33.8626 71.3239L33.9818 66.3767ZM37.8561 70.9662L36.0978 70.6682L36.6938 67.0324L35.4719 66.8237L34.7269 71.4729L37.7071 71.9497L37.8561 70.9662ZM40.1807 67.3304L38.929 67.2708L38.7502 71.9795L40.0019 72.0391L40.1807 67.3304ZM44.7404 71.1749L44.0251 70.4596C43.8463 70.698 43.5781 70.9066 43.2205 70.9364C42.6244 70.996 42.1774 70.549 42.088 69.6549C41.9986 68.7907 42.4456 68.2542 42.9821 68.1946C43.2801 68.1648 43.5483 68.284 43.7867 68.4629L44.353 67.5986C43.9953 67.2708 43.4589 67.0324 42.8331 67.092C41.641 67.2112 40.6277 68.1946 40.7767 69.7742C40.9257 71.3835 42.0284 72.0987 43.2205 71.9795C43.8165 71.9199 44.353 71.6517 44.7404 71.1749ZM49.1809 68.2244L48.5253 65.8701L47.363 66.1979L48.0782 68.6715C48.3166 69.4761 48.1676 69.8338 47.6908 69.9828C47.2438 70.1318 46.9457 69.8934 46.7073 69.0887L45.9921 66.6151L44.8 66.9728L45.4556 69.3271C45.9027 70.8768 46.7073 71.4133 47.9888 71.0556C49.2405 70.6682 49.6279 69.7742 49.1809 68.2244ZM53.2638 68.8205L51.6247 65.5423L52.7274 64.976L52.2505 64.0522L48.9127 65.7509L49.3895 66.6747L50.4922 66.1085L52.1313 69.3867L53.2638 68.8205ZM60.2971 61.4892C59.8501 60.9527 59.1348 60.8931 58.6282 61.3104C58.1215 61.7276 58.0917 62.4726 58.5388 62.9793C58.9858 63.5157 59.701 63.5753 60.2077 63.1581C60.7143 62.7409 60.7441 61.9958 60.2971 61.4892ZM61.1315 16.6668L58.509 19.498L59.4626 20.3921L62.0852 17.5609L63.0389 18.4549L63.7839 17.6503L60.8931 14.9681L60.1481 15.7728L61.1315 16.6668ZM66.5555 58.7176L63.0985 57.7937L61.7872 56.691L60.9527 57.7043L62.264 58.807L63.8137 62.0256L64.678 60.9527L64.1118 59.9991C63.9031 59.6414 63.7243 59.3434 63.5157 58.9858L63.5455 58.956C63.9329 59.105 64.2906 59.2242 64.6482 59.3732L65.6913 59.7607L66.5555 58.7176ZM67.0324 53.085C65.5721 52.2207 64.2906 52.7572 63.5753 53.9492C63.2177 54.5453 63.1283 55.2307 63.2475 55.7076L65.3038 56.8996L66.2575 55.2605L65.3336 54.7241L64.976 55.3499L64.38 54.9923C64.38 54.8731 64.4396 54.7241 64.4992 54.6049C64.9462 53.83 65.6019 53.7406 66.4065 54.2175C67.1814 54.6645 67.39 55.3797 67.0622 55.946C66.8535 56.2738 66.5853 56.4228 66.2873 56.5122L66.6747 57.5255C67.1814 57.4063 67.7178 57.0785 68.0754 56.4526C68.7609 55.2903 68.5225 53.83 67.0324 53.085ZM69.1483 47.81C67.6284 47.2438 66.4065 47.81 65.9297 49.0915C65.4529 50.4028 66.0191 51.5949 67.5688 52.1611C69.0887 52.7274 70.2808 52.1611 70.7576 50.8796C71.2047 49.5981 70.6682 48.4061 69.1483 47.81ZM72.2775 44.651L67.4198 43.6973L66.7939 46.8265L67.8668 47.0352L68.2244 45.1874L72.0093 45.9325L72.2775 44.651ZM70.1616 38.4223C68.5523 38.3925 67.539 39.2866 67.5092 40.6575C67.4794 42.0284 68.4033 42.9821 70.0424 43.0417C71.6815 43.1013 72.6352 42.1774 72.665 40.8065C72.7246 39.4356 71.8305 38.482 70.1616 38.4223Z" fill="white"/>
<path d="M14.6104 53.681L15.0575 54.4857L14.7297 54.5751C14.2528 54.6943 13.6866 54.8731 13.1799 55.0221L13.1501 54.9923C13.5078 54.6645 13.9846 54.2473 14.3422 53.9194L14.6104 53.681Z" fill="white"/>
<path d="M69.6848 50.4624C69.4762 51.0286 68.8504 51.1777 68.0159 50.8796C67.1815 50.5816 66.7642 50.0452 66.9728 49.4789C67.1815 48.9425 67.8371 48.7935 68.6716 49.0915C69.5358 49.4193 69.8934 49.926 69.6848 50.4624Z" fill="white"/>
<path d="M11.0342 44.3828C10.1402 44.502 9.57393 44.2039 9.51432 43.6079C9.42492 43.0119 9.90175 42.5946 10.7958 42.4754C11.6899 42.3562 12.3157 42.6542 12.3753 43.2503C12.4647 43.8463 11.9581 44.2934 11.0342 44.3828Z" fill="white"/>
<path d="M12.0773 32.611L11.8687 33.505L11.5409 33.356C11.0938 33.1176 10.5574 32.8494 10.0806 32.6408V32.611C10.5872 32.611 11.213 32.611 11.6899 32.611H12.0773Z" fill="white"/>
<path d="M0.00756836 94.0629H80.8011V96H0.00756836V94.0629Z" fill="white"/>
<path d="M65.1548 87.2382H66.6747V88.6091H65.1548V87.2382Z" fill="white"/>
<path d="M44.4424 88.8475C44.9788 88.6687 45.247 88.3707 45.247 87.9236C45.247 87.8044 45.2172 87.6852 45.1874 87.566C45.1576 87.4468 45.098 87.3574 45.0384 87.2382H46.4391V88.9071C46.2901 89.0561 46.1113 89.1753 45.9325 89.2647C45.7537 89.3541 45.5451 89.3839 45.3066 89.3839C45.098 89.3839 44.9192 89.3243 44.7702 89.2349C44.6212 89.1455 44.502 89.0263 44.4424 88.8475Z" fill="white"/>
<path d="M52.191 86.3143C52.1612 86.2249 52.1313 86.1355 52.1313 86.0163C52.1313 85.8077 52.2208 85.6587 52.3996 85.5395C52.5784 85.4203 52.8168 85.3607 53.1744 85.3607C53.6513 85.3607 54.0983 85.4799 54.5155 85.6885C54.9327 85.8872 55.3202 86.1852 55.6778 86.5825H53.383H53.1148H52.3102C52.2804 86.5229 52.2208 86.4335 52.191 86.3143Z" fill="white"/>
<path d="M69.804 88.8475C70.3404 88.6687 70.6086 88.3707 70.6086 87.9236C70.6086 87.8044 70.5788 87.6852 70.549 87.566C70.5192 87.4468 70.4596 87.3574 70.4 87.2382H71.8007V88.9071C71.6517 89.0561 71.4729 89.1753 71.2941 89.2647C71.1152 89.3541 70.9066 89.3839 70.6682 89.3839C70.4596 89.3839 70.2808 89.3243 70.1318 89.2349C70.0126 89.1455 69.8934 89.0263 69.804 88.8475Z" fill="white"/>
<path d="M14.3721 87.2382H15.892V88.6091H14.3721V87.2382Z" fill="white"/>
<path d="M20.2132 88.1621C20.243 88.0428 20.2728 87.8938 20.2728 87.7448C20.2728 87.6256 20.2728 87.5064 20.243 87.417C20.243 87.3276 20.2132 87.2382 20.1834 87.1786H21.7629V88.4303C21.6139 88.4899 21.4351 88.4899 21.2861 88.5197C21.1371 88.5495 20.9583 88.5495 20.7794 88.5495C20.6602 88.5495 20.541 88.5495 20.4218 88.5495C20.3026 88.5495 20.2132 88.5495 20.094 88.5197C20.1834 88.4303 20.2132 88.3409 20.2132 88.1621Z" fill="white"/>
<path fill-rule="evenodd" clip-rule="evenodd" d="M0.00756836 83.5129H80.8011V92.1555H0.00756836V83.5129ZM38.7801 87.3276H44.3829C44.4425 87.3872 44.5021 87.4766 44.5319 87.566C44.5617 87.6256 44.5915 87.7448 44.5915 87.8342C44.5915 88.0131 44.5319 88.1621 44.3829 88.2813C44.2339 88.4005 43.9955 88.4601 43.6974 88.5197C43.7272 88.8475 43.8465 89.1157 43.9955 89.3541C44.1445 89.5926 44.3531 89.7714 44.5915 89.9204C44.8299 90.0694 45.1279 90.129 45.4558 90.129C45.6942 90.129 45.9028 90.0992 46.1114 90.0396C46.2902 89.98 46.469 89.9204 46.6479 89.831V90.9039H47.5121V87.2978H49.1512V90.9039H50.0155V87.2978H51.6546V90.9039H52.5189V87.2978H56.6614V88.1323H55.6779C55.2805 88.1323 54.9825 88.1621 54.7838 88.2217C54.5454 88.2813 54.3666 88.3707 54.2176 88.4899C54.0984 88.5793 54.009 88.6985 53.9494 88.8177C53.8898 88.9767 53.86 89.1257 53.86 89.2647C53.86 89.4833 53.9196 89.6919 54.0388 89.8906C54.158 90.0992 54.307 90.3078 54.5156 90.4866C54.7242 90.6654 54.9328 90.8442 55.1712 91.0231L55.7375 90.5164C55.4097 90.3078 55.1712 90.0992 54.9924 89.9204C54.8136 89.7416 54.7242 89.5628 54.7242 89.3839C54.7242 89.2051 54.7838 89.0859 54.903 88.9965C54.9924 88.9071 55.1116 88.8773 55.2607 88.8475C55.4097 88.8177 55.6183 88.8177 55.9163 88.8177H56.6614V90.9337H57.5256V87.3276H59.4329V88.4601H59.3137C59.1051 88.4601 58.9561 88.4899 58.8965 88.5793C58.8369 88.6687 58.8071 88.7581 58.8071 88.8773C58.8071 88.9965 58.8369 89.0859 58.8965 89.2051C58.9561 89.2945 59.0455 89.4137 59.1647 89.5032C59.2541 89.5926 59.3733 89.682 59.4926 89.7416C59.6118 89.8012 59.731 89.831 59.8502 89.831C60.1482 89.831 60.2972 89.6522 60.2972 89.3541V87.3276H61.5489V90.9337H62.4132V87.3276H64.3205V88.6985H64.2013C63.9927 88.6985 63.8437 88.7581 63.7841 88.8177C63.6946 88.9071 63.6648 88.9667 63.6648 89.0859C63.6648 89.2051 63.6946 89.2945 63.7542 89.4138C63.8139 89.5032 63.9033 89.6224 64.0225 89.7118C64.1119 89.8012 64.2311 89.8906 64.3503 89.9502C64.4695 90.0098 64.5589 90.0396 64.6781 90.0396C64.7973 90.0396 64.9165 90.0098 65.0059 89.9204C65.0953 89.831 65.1251 89.7118 65.1251 89.533V89.3541H66.6451V90.9337H67.5391V87.3276H69.4763C69.5359 87.3872 69.5955 87.4766 69.6253 87.566C69.6551 87.6256 69.6849 87.7448 69.6849 87.8342C69.6849 88.0131 69.6253 88.1621 69.4763 88.2813C69.3272 88.4005 69.0888 88.4601 68.7908 88.5197C68.8206 88.8475 68.9398 89.1157 69.0888 89.3541C69.2378 89.5926 69.4464 89.7714 69.6849 89.9204C69.9233 90.0694 70.2213 90.129 70.5491 90.129C70.7875 90.129 70.9962 90.0992 71.2048 90.0396C71.3836 89.98 71.5624 89.9204 71.7412 89.831V90.9039H72.6055V87.2978H73.3505V86.6422H62.0853C61.9959 86.523 61.9363 86.4037 61.8767 86.2845C61.8171 86.1355 61.7873 86.0163 61.7873 85.8971C61.7873 85.7183 61.8469 85.5991 61.9363 85.5097C62.0257 85.4203 62.1747 85.3607 62.3834 85.3607C62.5622 85.3607 62.741 85.3905 62.9198 85.4501L63.0986 84.8838C62.9794 84.854 62.8602 84.8242 62.7112 84.7944C62.5622 84.7646 62.4132 84.7646 62.2343 84.7646C61.8767 84.7646 61.5489 84.854 61.3105 85.003C61.0423 85.1521 60.923 85.3905 60.923 85.7183C60.923 85.8673 60.9529 86.0163 61.0125 86.1951C61.0721 86.3441 61.1615 86.4931 61.2509 86.6422H56.6614C56.3633 86.3143 56.0653 85.9865 55.7077 85.7183C55.3501 85.4203 54.9328 85.2117 54.4858 85.0328C54.0388 84.854 53.5619 84.7646 53.0255 84.7646C52.4295 84.7646 52.0122 84.8838 51.6844 85.0924C51.3566 85.3011 51.2076 85.5991 51.2076 85.9567C51.2076 86.0759 51.2374 86.1951 51.2672 86.3143C51.297 86.4037 51.3566 86.523 51.4162 86.6422H49.7473C49.6281 86.2547 49.5089 85.9567 49.3896 85.7183C49.2406 85.4501 49.1214 85.2713 48.9724 85.1223C48.8234 84.9732 48.6744 84.8838 48.4956 84.8242C48.3168 84.7646 48.138 84.7348 47.9293 84.7348C47.7803 84.7348 47.6313 84.7348 47.5121 84.7646C47.3929 84.7845 47.2737 84.8143 47.1545 84.854L47.3929 85.4799C47.4525 85.4501 47.5419 85.4501 47.6313 85.4203C47.7207 85.3905 47.8399 85.3905 47.9293 85.3905C48.1082 85.3905 48.2572 85.4203 48.3764 85.5097C48.4956 85.5693 48.6148 85.7183 48.7042 85.8971C48.7936 86.0759 48.883 86.3143 48.9724 86.5826H38.7801V87.3276ZM43.2802 88.4601V87.8044H41.1643L40.8662 88.3707C41.1047 88.4899 41.2835 88.6389 41.4325 88.7879C41.5815 88.9369 41.6411 89.1157 41.6411 89.2945C41.6411 89.4138 41.6113 89.533 41.5219 89.5926C41.4325 89.6522 41.3133 89.682 41.1941 89.682C40.896 89.682 40.6278 89.533 40.3894 89.2349C40.1212 88.9369 39.9126 88.5197 39.6742 87.9236L38.9291 88.1621C39.1675 88.7184 39.4059 89.1654 39.6444 89.5032C39.8828 89.831 40.151 90.0694 40.4192 90.1886C40.6874 90.3376 40.9855 90.3972 41.2835 90.3972C41.5219 90.3972 41.7305 90.3376 41.9093 90.278C42.0881 90.2184 42.2371 90.0992 42.3563 89.9502C42.4756 89.8111 42.5352 89.6323 42.5352 89.4138C42.5352 89.2349 42.5054 89.0561 42.416 88.9071C42.3365 88.7283 42.2173 88.5793 42.0583 88.4601C42.1477 88.4601 43.0716 88.4601 43.2802 88.4601ZM28.707 86.5826V87.2382H29.6011V88.6091H29.4818C29.2732 88.6091 29.1242 88.6687 29.0646 88.7283C28.9752 88.8177 28.9454 88.8773 28.9454 88.9965C28.9454 89.1157 28.9752 89.2051 29.0348 89.3243C29.0944 89.4138 29.1838 89.533 29.303 89.6224C29.3924 89.7118 29.5116 89.8012 29.6309 89.8608C29.7501 89.9204 29.8395 89.9502 29.9587 89.9502C30.0779 89.9502 30.1971 89.9204 30.2865 89.831C30.3759 89.7416 30.4057 89.6224 30.4057 89.4436V89.2647H31.9852V90.8442H32.8793V87.2382H34.5184V90.8442H35.3827V87.2382H36.1277V86.5826H28.707ZM7.5773 87.3574H10.7661V88.1919H9.78266C9.38529 88.1919 9.08727 88.2217 8.88859 88.2813C8.65018 88.3409 8.47136 88.4303 8.32235 88.5495C8.20315 88.6389 8.11374 88.7283 8.05413 88.8773C7.99453 89.0164 7.96473 89.1654 7.96473 89.3243C7.96473 89.5429 8.02433 89.7515 8.14354 89.9502C8.26275 90.1588 8.41176 90.3674 8.62037 90.5462C8.82899 90.725 9.0376 90.9039 9.27602 91.0827L9.84226 90.576C9.51444 90.3674 9.27602 90.1588 9.09721 89.98C8.9184 89.8012 8.82899 89.6224 8.82899 89.4436C8.82899 89.2647 8.88859 89.1455 9.0078 89.0561C9.09721 88.9667 9.21642 88.9369 9.36543 88.9071C9.51444 88.8773 9.72305 88.8773 10.0211 88.8773H10.7661V90.9933H11.6304V87.3872H13.5675V88.7581H13.4483C13.2397 88.7581 13.0907 88.8177 13.0311 88.8773C12.9417 88.9667 12.9119 89.0263 12.9119 89.1455C12.9119 89.2647 12.9417 89.3542 13.0013 89.4734C13.0609 89.5628 13.1503 89.682 13.2695 89.7714C13.3589 89.8608 13.4781 89.9502 13.5973 90.0098C13.7165 90.0694 13.8059 90.0992 13.9251 90.0992C14.0444 90.0992 14.1636 90.0694 14.253 89.98C14.3424 89.8906 14.3722 89.7714 14.3722 89.5926V89.4138H15.8921V90.9933H16.7861V87.3872H19.3491C19.3789 87.4468 19.3789 87.5064 19.4087 87.5958C19.4385 87.6554 19.4385 87.7448 19.4385 87.8342C19.4385 87.9236 19.4385 88.0429 19.4087 88.1621C19.3789 88.2813 19.3193 88.3707 19.2597 88.4601C19.1107 88.3111 18.9021 88.2217 18.6637 88.2217C18.4551 88.2217 18.3061 88.2813 18.2166 88.3707C18.1272 88.4601 18.0974 88.5495 18.0974 88.6687C18.0974 88.7283 18.1272 88.8177 18.157 88.9071C18.1868 88.9965 18.2465 89.0859 18.3657 89.2349C18.5445 89.4734 18.8127 89.7118 19.1405 90.0396C19.4683 90.3674 19.8558 90.6952 20.273 91.0231L20.8392 90.5164C20.5412 90.3078 20.273 90.0694 20.0048 89.8608C19.7366 89.6224 19.5279 89.4137 19.3193 89.2051C19.4087 89.1753 19.4981 89.1455 19.5577 89.1157C19.7068 89.1753 19.9154 89.2349 20.1538 89.2647C20.3922 89.2945 20.6604 89.3243 20.9286 89.3243C21.1075 89.3243 21.2565 89.2945 21.4055 89.2945C21.5545 89.2945 21.7035 89.2647 21.8525 89.2349V90.9039H22.7168V87.2978H24.3559V90.9039H25.2201V87.2978H25.9652V86.6422H25.1605C25.0413 86.2547 24.9221 85.9567 24.8029 85.7183C24.6539 85.4501 24.5347 85.2713 24.3857 85.1223C24.2367 84.9732 24.0877 84.8838 23.9088 84.8242C23.73 84.7646 23.5512 84.7348 23.3426 84.7348C23.1936 84.7348 23.0446 84.7348 22.9254 84.7646C22.8062 84.7845 22.687 84.8143 22.5678 84.854L22.8062 85.4799C22.8658 85.4501 22.9552 85.4501 23.0446 85.4203C23.134 85.3905 23.2532 85.3905 23.3426 85.3905C23.5214 85.3905 23.6704 85.4203 23.7896 85.5097C23.9088 85.5693 24.0281 85.7183 24.1175 85.8971C24.2069 86.0759 24.2963 86.3143 24.3857 86.5826H7.5773V87.3574Z" fill="white"/>
<path d="M30.4055 87.2382H31.9254V88.6091H30.4055V87.2382Z" fill="white"/>
</svg>
